# xmcd
#
# Track frame offsets: 
#        150
#        14672
#        34857
#        51477
#        66812
#        92937
#        113790
#        133155
#        151985
#        167942
#        183795
#        201675
#        219677
#        238320
#        258065
#        281967
#        301780
#        318150
#
# Disc length: 4446 seconds
#
# Revision: 0
# Processed by: cddbd v1.5.2PL0 Copyright (c) Steve Scherf et al.
# Submitted via: ExactAudioCopy v0.99pb4
#
DISCID=14115c12
DTITLE=Various Artist - Lo Mejor Del Planeta Latino 80's 90's [CD 2)
DYEAR=1999
DGENRE=Pop
TTITLE0=Maldita Vecindad - Pachuco
TTITLE1=Alejandro Lerner - Me Dijeron
TTITLE2=Rocío Banquells - Pudo Ser Amor
TTITLE3=Gloria Trevi - Pelo Suelto
TTITLE4=Vico C - Me Acuerdo
TTITLE5=Eduardo Capetillo - Dame Una Noche
TTITLE6=Alejandro Lerner - Castillos De Arena
TTITLE7=Alejandra Guzmán - Mala Hierba
TTITLE8=Juan Pablo Manzanero - Úneme
TTITLE9=Rocío Durcal - Cómo Han Pasado Los Años
TTITLE10=Joaquín Sabina - Por El Boulevard De Los Sueños Rotos
TTITLE11=Gustavo Lara - A La Sombra De Los Ángeles
TTITLE12=Los Del Río - Macarena
TTITLE13=Los Ilegales - La Morena
TTITLE14=Diego Torres - Penélope
TTITLE15=Cristian - Lloran Las Rosas
TTITLE16=Tierra Cero - Volverás A Sentir
TTITLE17=Kairo - Bailando En Tu Habitación
EXTD=
EXTT0=
EXTT1=
EXTT2=
EXTT3=
EXTT4=
EXTT5=
EXTT6=
EXTT7=
EXTT8=
EXTT9=
EXTT10=
EXTT11=
EXTT12=
EXTT13=
EXTT14=
EXTT15=
EXTT16=
EXTT17=
PLAYORDER=
